<svg width="1024" height="1024" viewBox="0 0 1024 1024" fill="none" xmlns="http://www.w3.org/2000/svg">
  <defs>
    <linearGradient id="bg" x1="144" y1="112" x2="888" y2="912" gradientUnits="userSpaceOnUse">
      <stop stop-color="#1A2653"/>
      <stop offset="0.52" stop-color="#2A235D"/>
      <stop offset="1" stop-color="#140F2F"/>
    </linearGradient>
    <linearGradient id="frame" x1="180" y1="144" x2="844" y2="868" gradientUnits="userSpaceOnUse">
      <stop stop-color="#98F8FF" stop-opacity="0.82"/>
      <stop offset="0.45" stop-color="#8F9BFF" stop-opacity="0.42"/>
      <stop offset="1" stop-color="#FFBA7A" stop-opacity="0.68"/>
    </linearGradient>
    <linearGradient id="glass" x1="248" y1="228" x2="760" y2="802" gradientUnits="userSpaceOnUse">
      <stop stop-color="#243470" stop-opacity="0.82"/>
      <stop offset="1" stop-color="#1A163E" stop-opacity="0.98"/>
    </linearGradient>
    <linearGradient id="accent" x1="356" y1="348" x2="700" y2="690" gradientUnits="userSpaceOnUse">
      <stop stop-color="#79F6FF"/>
      <stop offset="1" stop-color="#FFB566"/>
    </linearGradient>
    <filter id="shadow" x="92" y="84" width="840" height="856" filterUnits="userSpaceOnUse" color-interpolation-filters="sRGB">
      <feFlood flood-opacity="0" result="BackgroundImageFix"/>
      <feColorMatrix in="SourceAlpha" type="matrix" values="0 0 0 0 0 0 0 0 0 0 0 0 0 0 0 0 0 0 127 0" result="hardAlpha"/>
      <feOffset dy="28"/>
      <feGaussianBlur stdDeviation="34"/>
      <feColorMatrix type="matrix" values="0 0 0 0 0.027451 0 0 0 0 0.0470588 0 0 0 0 0.137255 0 0 0 0.38 0"/>
      <feBlend mode="normal" in2="BackgroundImageFix" result="effect1_dropShadow_0_1"/>
      <feBlend mode="normal" in="SourceGraphic" in2="effect1_dropShadow_0_1" result="shape"/>
    </filter>
    <filter id="glow" x="284" y="264" width="470" height="484" filterUnits="userSpaceOnUse" color-interpolation-filters="sRGB">
      <feFlood flood-opacity="0" result="BackgroundImageFix"/>
      <feBlend mode="normal" in="SourceGraphic" in2="BackgroundImageFix" result="shape"/>
      <feGaussianBlur stdDeviation="22" result="effect1_foregroundBlur_0_1"/>
    </filter>
  </defs>

  <rect width="1024" height="1024" rx="236" fill="url(#bg)"/>
  <circle cx="784" cy="198" r="168" fill="#FF8C66" fill-opacity="0.18"/>
  <circle cx="230" cy="256" r="204" fill="#72E9FF" fill-opacity="0.16"/>
  <circle cx="834" cy="780" r="188" fill="#67D1FF" fill-opacity="0.14"/>

  <g filter="url(#shadow)">
    <rect x="144" y="116" width="736" height="736" rx="188" fill="url(#bg)"/>
    <rect x="166" y="138" width="692" height="692" rx="166" stroke="url(#frame)" stroke-width="14"/>
    <rect x="212" y="204" width="600" height="540" rx="132" fill="url(#glass)"/>

    <rect x="260" y="260" width="504" height="66" rx="33" fill="white" fill-opacity="0.08"/>
    <circle cx="314" cy="293" r="10" fill="#7EF6FF"/>
    <circle cx="350" cy="293" r="10" fill="#A2B1FF"/>
    <circle cx="386" cy="293" r="10" fill="#FFC07F"/>

    <rect x="274" y="368" width="110" height="312" rx="40" fill="white" fill-opacity="0.07"/>
    <rect x="302" y="414" width="54" height="18" rx="9" fill="#8BDFFF" fill-opacity="0.92"/>
    <rect x="302" y="458" width="54" height="18" rx="9" fill="white" fill-opacity="0.54"/>
    <rect x="302" y="502" width="54" height="18" rx="9" fill="white" fill-opacity="0.38"/>
    <rect x="302" y="546" width="54" height="18" rx="9" fill="white" fill-opacity="0.24"/>

    <g filter="url(#glow)">
      <path d="M464 438L580 520L464 602" stroke="url(#accent)" stroke-width="54" stroke-linecap="round" stroke-linejoin="round"/>
      <path d="M620 636H700" stroke="url(#accent)" stroke-width="54" stroke-linecap="round"/>
    </g>

    <path d="M464 438L580 520L464 602" stroke="white" stroke-opacity="0.96" stroke-width="42" stroke-linecap="round" stroke-linejoin="round"/>
    <path d="M620 636H700" stroke="white" stroke-opacity="0.96" stroke-width="42" stroke-linecap="round"/>

    <path d="M278 744C332 694 414 660 496 660H780C792 660 802 670 802 682V702C802 714 792 724 780 724H508C432 724 364 758 320 810L278 744Z" fill="#FFB46B" fill-opacity="0.92"/>
  </g>
</svg>
